<svg width="220" height="175" viewBox="0 0 220 175" fill="none" xmlns="http://www.w3.org/2000/svg">
<path fill-rule="evenodd" clip-rule="evenodd" d="M155.974 83.4179C146.913 99.2891 129.787 110 110.137 110C90.4874 110 73.3614 99.2891 64.301 83.4179H86.8139H90.8139V79.4179V68.244V64.244H86.8139H76.0303V53.3309V49.3309H72.0303H63.3586V38.4179V34.4179H62.7956C71.3673 17.0001 89.3385 5 110.137 5C130.936 5 148.907 17.0001 157.479 34.4179H156.641V38.4179V49.3309H147.97H143.97V53.3309V64.244H133.186H129.186V68.244V79.4179V83.4179H133.186H155.974ZM158.034 79.4179H133.186V68.244H143.97V68.5049H147.97H161.673C160.858 72.3113 159.629 75.9654 158.034 79.4179ZM161.653 83.4179C152.144 102.154 132.646 115 110.137 115C87.6288 115 68.1308 102.154 58.6214 83.4179H43.8404C35.2629 83.4179 28.2248 76.8269 27.5144 68.4332C19.5352 67.6883 13.2176 61.2216 12.7053 53.177C5.42795 51.5071 0 44.9908 0 37.2068C0 35.6665 1.24865 34.4179 2.78893 34.4179H57.2787C66.2005 14.1538 86.5104 0 110.137 0C133.764 0 154.074 14.1539 162.996 34.4179H217.211C218.751 34.4179 220 35.6665 220 37.2068C220 44.9908 214.572 51.507 207.295 53.177C206.783 61.2216 200.465 67.6883 192.486 68.4332C191.775 76.8269 184.737 83.4179 176.16 83.4179H161.653ZM160.641 42.4709V49.3309H162.198C161.831 46.9895 161.309 44.6992 160.641 42.4709ZM167.255 49.3309C166.717 45.5633 165.813 41.9133 164.58 38.4179H215.942C215.39 44.1 210.999 48.6581 205.395 49.4648C205.126 49.3779 204.838 49.3309 204.539 49.3309H167.255ZM162.689 53.5918H160.641H156.641V53.3309H147.97V64.244H162.402C162.686 62.0358 162.833 59.7849 162.833 57.5C162.833 56.1855 162.784 54.8822 162.689 53.5918ZM167.44 64.244C167.699 62.0319 167.833 59.7815 167.833 57.5C167.833 56.1865 167.789 54.8833 167.702 53.5918H203.242C202.514 59.738 197.285 64.5049 190.943 64.5049H190.935C190.577 64.3375 190.177 64.244 189.756 64.244H167.44ZM166.777 68.5049H188.458C187.73 74.6511 182.502 79.4179 176.16 79.4179H163.493C164.934 75.9388 166.042 72.288 166.777 68.5049ZM55.6949 38.4179H4.05846C4.6099 44.1 9.00105 48.6581 14.6046 49.4648C14.8744 49.3779 15.162 49.3309 15.4607 49.3309H53.0197C53.5574 45.5633 54.4615 41.9133 55.6949 38.4179ZM52.573 53.5918H16.7583C17.4861 59.738 22.7148 64.5049 29.0567 64.5049H29.065C29.4232 64.3375 29.8228 64.244 30.2443 64.244H52.8345C52.5752 62.0319 52.4419 59.7815 52.4419 57.5C52.4419 56.1865 52.4861 54.8833 52.573 53.5918ZM57.8727 64.244C57.5884 62.0358 57.4419 59.7849 57.4419 57.5C57.4419 56.1855 57.4904 54.8822 57.5857 53.5918H59.3586H63.3586V53.3309H72.0303V64.244H57.8727ZM53.4974 68.5049H31.5419C32.2698 74.6511 37.4984 79.4179 43.8404 79.4179H56.7815C55.341 75.9388 54.2332 72.288 53.4974 68.5049ZM62.2404 79.4179C60.6461 75.9654 59.4168 72.3113 58.6017 68.5049H72.0303H76.0303V68.244H86.8139V79.4179H62.2404ZM58.0762 49.3309C58.3915 47.321 58.8212 45.3488 59.3586 43.4211V49.3309H58.0762Z" fill="url(#paint0_linear)"/>
<circle cx="110.281" cy="57.2627" r="51.2812" stroke="#423F55" stroke-width="4"/>
<path d="M39.7377 106.526C38.5339 104.527 39.974 101.979 42.3078 101.979H177.506C179.84 101.979 181.28 104.527 180.076 106.526L169.107 124.746C168.564 125.648 167.589 126.199 166.537 126.199H53.277C52.2248 126.199 51.2495 125.648 50.7068 124.746L39.7377 106.526Z" fill="#FFE3B1"/>
<path d="M39.7377 110.35C38.5339 108.351 39.974 105.803 42.3078 105.803H177.506C179.84 105.803 181.28 108.351 180.076 110.35L169.107 128.57C168.564 129.472 167.589 130.023 166.537 130.023H53.277C52.2248 130.023 51.2495 129.472 50.7068 128.57L39.7377 110.35Z" fill="url(#paint1_linear)"/>
<g filter="url(#filter0_d)">
<path d="M79.0217 114.567C79.0217 114.125 78.9611 113.8 78.8397 113.592C78.7184 113.376 78.4757 113.267 78.1117 113.267H77.8517V113.007H81.2317C82.0637 113.007 82.8134 113.185 83.4807 113.54C84.1481 113.896 84.4817 114.585 84.4817 115.607C84.4817 116.283 84.3084 116.803 83.9617 117.167C83.6151 117.531 83.2251 117.774 82.7917 117.895C82.3671 118.017 81.9771 118.077 81.6217 118.077H80.1917V121.587H79.0217V114.567ZM81.1667 117.622C81.4441 117.622 81.7387 117.553 82.0507 117.414C82.3627 117.267 82.6271 117.037 82.8437 116.725C83.0691 116.413 83.1817 116.019 83.1817 115.542C83.1817 115.066 83.0691 114.671 82.8437 114.359C82.6271 114.047 82.3627 113.822 82.0507 113.683C81.7387 113.536 81.4441 113.462 81.1667 113.462C80.8634 113.462 80.5384 113.506 80.1917 113.592V117.492C80.5384 117.579 80.8634 117.622 81.1667 117.622ZM85.8566 117.037C85.8566 116.595 85.7959 116.27 85.6746 116.062C85.5533 115.846 85.3106 115.737 84.9466 115.737H84.8166V115.477H85.8566C86.1859 115.477 86.4329 115.525 86.5976 115.62C86.7709 115.707 86.8923 115.854 86.9616 116.062H87.0266C87.1826 115.863 87.3906 115.694 87.6506 115.555C87.9193 115.417 88.2313 115.347 88.5866 115.347C88.9333 115.347 89.1933 115.412 89.3666 115.542C89.5139 115.655 89.6656 115.85 89.8216 116.127L89.3016 116.517C89.2063 116.387 89.0676 116.292 88.8856 116.231C88.7036 116.162 88.4956 116.127 88.2616 116.127C88.0016 116.127 87.7633 116.188 87.5466 116.309C87.3299 116.422 87.1566 116.578 87.0266 116.777V121.587H85.8566V117.037ZM93.3143 121.717C92.725 121.717 92.2137 121.579 91.7803 121.301C91.347 121.015 91.0177 120.63 90.7923 120.144C90.567 119.659 90.4543 119.122 90.4543 118.532C90.4543 117.943 90.567 117.406 90.7923 116.92C91.0177 116.435 91.347 116.054 91.7803 115.776C92.2137 115.49 92.725 115.347 93.3143 115.347C93.9037 115.347 94.415 115.49 94.8483 115.776C95.2817 116.054 95.611 116.435 95.8363 116.92C96.0617 117.406 96.1743 117.943 96.1743 118.532C96.1743 119.122 96.0617 119.659 95.8363 120.144C95.611 120.63 95.2817 121.015 94.8483 121.301C94.415 121.579 93.9037 121.717 93.3143 121.717ZM93.3143 121.197C93.635 121.197 93.9167 121.08 94.1593 120.846C94.4107 120.612 94.6013 120.292 94.7313 119.884C94.87 119.477 94.9393 119.026 94.9393 118.532C94.9393 118.038 94.87 117.588 94.7313 117.18C94.6013 116.773 94.4107 116.452 94.1593 116.218C93.9167 115.984 93.635 115.867 93.3143 115.867C92.9937 115.867 92.7077 115.984 92.4563 116.218C92.2137 116.452 92.023 116.773 91.8843 117.18C91.7543 117.588 91.6893 118.038 91.6893 118.532C91.6893 119.026 91.7543 119.477 91.8843 119.884C92.023 120.292 92.2137 120.612 92.4563 120.846C92.7077 121.08 92.9937 121.197 93.3143 121.197ZM97.0359 115.997V115.477H97.9459V115.087C97.9459 113.614 98.7042 112.877 100.221 112.877C100.767 112.877 101.135 112.942 101.326 113.072C101.473 113.185 101.625 113.38 101.781 113.657L101.391 113.982C101.131 113.592 100.719 113.397 100.156 113.397C99.4626 113.397 99.1159 113.961 99.1159 115.087V115.477H100.936V115.997H99.1159V121.587H97.9459V115.997H97.0359ZM102.933 114.697C102.733 114.697 102.56 114.615 102.413 114.45C102.274 114.286 102.205 114.091 102.205 113.865C102.205 113.683 102.257 113.54 102.361 113.436C102.473 113.332 102.621 113.28 102.803 113.28C103.002 113.28 103.171 113.363 103.31 113.527C103.457 113.692 103.531 113.887 103.531 114.112C103.531 114.294 103.474 114.437 103.362 114.541C103.258 114.645 103.115 114.697 102.933 114.697ZM102.439 117.037C102.439 116.595 102.378 116.27 102.257 116.062C102.135 115.846 101.893 115.737 101.529 115.737H101.269V115.477H102.439C102.759 115.477 102.998 115.521 103.154 115.607C103.318 115.685 103.435 115.833 103.505 116.049C103.574 116.266 103.609 116.595 103.609 117.037V121.587H102.439V117.037ZM107.484 121.717C106.487 121.717 105.816 121.544 105.469 121.197C105.322 121.05 105.231 120.885 105.196 120.703C105.161 120.513 105.144 120.222 105.144 119.832H105.404C105.482 120.266 105.668 120.604 105.963 120.846C106.266 121.08 106.687 121.197 107.224 121.197C107.701 121.197 108.056 121.115 108.29 120.95C108.533 120.786 108.654 120.565 108.654 120.287C108.654 120.036 108.559 119.819 108.368 119.637C108.186 119.455 107.891 119.282 107.484 119.117L106.704 118.792C106.184 118.584 105.794 118.342 105.534 118.064C105.274 117.787 105.144 117.445 105.144 117.037C105.144 116.509 105.343 116.097 105.742 115.802C106.141 115.499 106.656 115.347 107.289 115.347C108.242 115.347 108.892 115.521 109.239 115.867C109.386 116.015 109.477 116.179 109.512 116.361C109.547 116.543 109.564 116.834 109.564 117.232H109.304C109.235 116.799 109.053 116.465 108.758 116.231C108.463 115.989 108.06 115.867 107.549 115.867C107.142 115.867 106.821 115.954 106.587 116.127C106.362 116.292 106.249 116.509 106.249 116.777C106.249 117.228 106.596 117.596 107.289 117.882L108.069 118.207C108.658 118.45 109.087 118.71 109.356 118.987C109.625 119.256 109.759 119.603 109.759 120.027C109.759 120.556 109.547 120.972 109.122 121.275C108.697 121.57 108.151 121.717 107.484 121.717ZM113.286 121.717C112.289 121.717 111.617 121.544 111.271 121.197C111.123 121.05 111.032 120.885 110.998 120.703C110.963 120.513 110.946 120.222 110.946 119.832H111.206C111.284 120.266 111.47 120.604 111.765 120.846C112.068 121.08 112.488 121.197 113.026 121.197C113.502 121.197 113.858 121.115 114.092 120.95C114.334 120.786 114.456 120.565 114.456 120.287C114.456 120.036 114.36 119.819 114.17 119.637C113.988 119.455 113.693 119.282 113.286 119.117L112.506 118.792C111.986 118.584 111.596 118.342 111.336 118.064C111.076 117.787 110.946 117.445 110.946 117.037C110.946 116.509 111.145 116.097 111.544 115.802C111.942 115.499 112.458 115.347 113.091 115.347C114.044 115.347 114.694 115.521 115.041 115.867C115.188 116.015 115.279 116.179 115.314 116.361C115.348 116.543 115.366 116.834 115.366 117.232H115.106C115.036 116.799 114.854 116.465 114.56 116.231C114.265 115.989 113.862 115.867 113.351 115.867C112.943 115.867 112.623 115.954 112.389 116.127C112.163 116.292 112.051 116.509 112.051 116.777C112.051 117.228 112.397 117.596 113.091 117.882L113.871 118.207C114.46 118.45 114.889 118.71 115.158 118.987C115.426 119.256 115.561 119.603 115.561 120.027C115.561 120.556 115.348 120.972 114.924 121.275C114.499 121.57 113.953 121.717 113.286 121.717ZM117.736 114.697C117.536 114.697 117.363 114.615 117.216 114.45C117.077 114.286 117.008 114.091 117.008 113.865C117.008 113.683 117.06 113.54 117.164 113.436C117.276 113.332 117.424 113.28 117.606 113.28C117.805 113.28 117.974 113.363 118.113 113.527C118.26 113.692 118.334 113.887 118.334 114.112C118.334 114.294 118.277 114.437 118.165 114.541C118.061 114.645 117.918 114.697 117.736 114.697ZM117.242 117.037C117.242 116.595 117.181 116.27 117.06 116.062C116.938 115.846 116.696 115.737 116.332 115.737H116.072V115.477H117.242C117.562 115.477 117.801 115.521 117.957 115.607C118.121 115.685 118.238 115.833 118.308 116.049C118.377 116.266 118.412 116.595 118.412 117.037V121.587H117.242V117.037ZM122.755 121.717C122.165 121.717 121.654 121.579 121.221 121.301C120.787 121.015 120.458 120.63 120.233 120.144C120.007 119.659 119.895 119.122 119.895 118.532C119.895 117.943 120.007 117.406 120.233 116.92C120.458 116.435 120.787 116.054 121.221 115.776C121.654 115.49 122.165 115.347 122.755 115.347C123.344 115.347 123.855 115.49 124.289 115.776C124.722 116.054 125.051 116.435 125.277 116.92C125.502 117.406 125.615 117.943 125.615 118.532C125.615 119.122 125.502 119.659 125.277 120.144C125.051 120.63 124.722 121.015 124.289 121.301C123.855 121.579 123.344 121.717 122.755 121.717ZM122.755 121.197C123.075 121.197 123.357 121.08 123.6 120.846C123.851 120.612 124.042 120.292 124.172 119.884C124.31 119.477 124.38 119.026 124.38 118.532C124.38 118.038 124.31 117.588 124.172 117.18C124.042 116.773 123.851 116.452 123.6 116.218C123.357 115.984 123.075 115.867 122.755 115.867C122.434 115.867 122.148 115.984 121.897 116.218C121.654 116.452 121.463 116.773 121.325 117.18C121.195 117.588 121.13 118.038 121.13 118.532C121.13 119.026 121.195 119.477 121.325 119.884C121.463 120.292 121.654 120.612 121.897 120.846C122.148 121.08 122.434 121.197 122.755 121.197ZM127.334 117.037C127.334 116.595 127.274 116.27 127.152 116.062C127.031 115.846 126.788 115.737 126.424 115.737H126.164V115.477H127.334C127.655 115.477 127.898 115.521 128.062 115.607C128.236 115.694 128.361 115.824 128.439 115.997H128.504C128.686 115.815 128.92 115.664 129.206 115.542C129.501 115.412 129.83 115.347 130.194 115.347C130.844 115.347 131.373 115.521 131.78 115.867C132.196 116.214 132.404 116.821 132.404 117.687V121.587H131.234V117.687C131.234 117.081 131.096 116.639 130.818 116.361C130.55 116.075 130.212 115.932 129.804 115.932C129.345 115.932 128.912 116.162 128.504 116.621V121.587H127.334V117.037ZM135.667 121.717C135.389 121.717 135.108 121.661 134.822 121.548C134.536 121.427 134.289 121.232 134.081 120.963C133.881 120.695 133.782 120.339 133.782 119.897C133.782 119.239 134.085 118.771 134.692 118.493C135.307 118.216 136.109 118.077 137.097 118.077H137.487C137.487 117.228 137.37 116.647 137.136 116.335C136.902 116.023 136.564 115.867 136.122 115.867C135.732 115.867 135.42 115.95 135.186 116.114C134.952 116.279 134.787 116.565 134.692 116.972H134.107C134.107 116.678 134.124 116.448 134.159 116.283C134.193 116.11 134.284 115.95 134.432 115.802C134.588 115.646 134.843 115.534 135.199 115.464C135.563 115.386 135.957 115.347 136.382 115.347C137.084 115.347 137.638 115.538 138.046 115.919C138.453 116.292 138.657 117.011 138.657 118.077V121.587H138.007L137.552 121.002H137.487C137.331 121.202 137.101 121.371 136.798 121.509C136.494 121.648 136.117 121.717 135.667 121.717ZM136.252 121.132C136.538 121.132 136.776 121.063 136.967 120.924C137.157 120.786 137.331 120.595 137.487 120.352V118.597H137.097C136.455 118.597 135.948 118.719 135.576 118.961C135.203 119.195 135.017 119.507 135.017 119.897C135.017 120.296 135.134 120.604 135.368 120.82C135.61 121.028 135.905 121.132 136.252 121.132ZM140.521 114.567C140.521 114.125 140.461 113.8 140.339 113.592C140.218 113.376 139.975 113.267 139.611 113.267H139.351V113.007H140.521C140.842 113.007 141.08 113.051 141.236 113.137C141.401 113.215 141.518 113.363 141.587 113.579C141.657 113.796 141.691 114.125 141.691 114.567V121.587H140.521V114.567Z" fill="white"/>
</g>
<path d="M37.6361 154.387C37.6361 153.367 37.4961 152.617 37.2161 152.137C36.9361 151.637 36.3761 151.387 35.5361 151.387H34.9361V150.787H42.7361C44.6561 150.787 46.3861 151.197 47.9261 152.017C49.4661 152.837 50.2361 154.427 50.2361 156.787C50.2361 158.347 49.8361 159.547 49.0361 160.387C48.2361 161.227 47.3361 161.787 46.3361 162.067C45.3561 162.347 44.4561 162.487 43.6361 162.487H40.3361V170.587H37.6361V154.387ZM42.5861 161.437C43.2261 161.437 43.9061 161.277 44.6261 160.957C45.3461 160.617 45.9561 160.087 46.4561 159.367C46.9761 158.647 47.2361 157.737 47.2361 156.637C47.2361 155.537 46.9761 154.627 46.4561 153.907C45.9561 153.187 45.3461 152.667 44.6261 152.347C43.9061 152.007 43.2261 151.837 42.5861 151.837C41.8861 151.837 41.1361 151.937 40.3361 152.137V161.137C41.1361 161.337 41.8861 161.437 42.5861 161.437ZM53.4088 160.087C53.4088 159.067 53.2688 158.317 52.9888 157.837C52.7088 157.337 52.1488 157.087 51.3088 157.087H51.0088V156.487H53.4088C54.1688 156.487 54.7388 156.597 55.1188 156.817C55.5188 157.017 55.7988 157.357 55.9588 157.837H56.1088C56.4688 157.377 56.9488 156.987 57.5488 156.667C58.1688 156.347 58.8888 156.187 59.7088 156.187C60.5088 156.187 61.1088 156.337 61.5088 156.637C61.8488 156.897 62.1988 157.347 62.5588 157.987L61.3588 158.887C61.1388 158.587 60.8188 158.367 60.3988 158.227C59.9788 158.067 59.4988 157.987 58.9588 157.987C58.3588 157.987 57.8088 158.127 57.3088 158.407C56.8088 158.667 56.4088 159.027 56.1088 159.487V170.587H53.4088V160.087ZM70.6189 170.887C69.2589 170.887 68.0789 170.567 67.0789 169.927C66.0789 169.267 65.3189 168.377 64.7989 167.257C64.2789 166.137 64.0189 164.897 64.0189 163.537C64.0189 162.177 64.2789 160.937 64.7989 159.817C65.3189 158.697 66.0789 157.817 67.0789 157.177C68.0789 156.517 69.2589 156.187 70.6189 156.187C71.9789 156.187 73.1589 156.517 74.1589 157.177C75.1589 157.817 75.9189 158.697 76.4389 159.817C76.9589 160.937 77.2189 162.177 77.2189 163.537C77.2189 164.897 76.9589 166.137 76.4389 167.257C75.9189 168.377 75.1589 169.267 74.1589 169.927C73.1589 170.567 71.9789 170.887 70.6189 170.887ZM70.6189 169.687C71.3589 169.687 72.0089 169.417 72.5689 168.877C73.1489 168.337 73.5889 167.597 73.8889 166.657C74.2089 165.717 74.3689 164.677 74.3689 163.537C74.3689 162.397 74.2089 161.357 73.8889 160.417C73.5889 159.477 73.1489 158.737 72.5689 158.197C72.0089 157.657 71.3589 157.387 70.6189 157.387C69.8789 157.387 69.2189 157.657 68.6389 158.197C68.0789 158.737 67.6389 159.477 67.3189 160.417C67.0189 161.357 66.8689 162.397 66.8689 163.537C66.8689 164.677 67.0189 165.717 67.3189 166.657C67.6389 167.597 68.0789 168.337 68.6389 168.877C69.2189 169.417 69.8789 169.687 70.6189 169.687ZM79.2071 157.687V156.487H81.3071V155.587C81.3071 152.187 83.0571 150.487 86.5571 150.487C87.8171 150.487 88.6671 150.637 89.1071 150.937C89.4471 151.197 89.7971 151.647 90.1571 152.287L89.2571 153.037C88.6571 152.137 87.7071 151.687 86.4071 151.687C84.8071 151.687 84.0071 152.987 84.0071 155.587V156.487H88.2071V157.687H84.0071V170.587H81.3071V157.687H79.2071ZM92.8154 154.687C92.3554 154.687 91.9554 154.497 91.6154 154.117C91.2954 153.737 91.1354 153.287 91.1354 152.767C91.1354 152.347 91.2554 152.017 91.4954 151.777C91.7554 151.537 92.0954 151.417 92.5154 151.417C92.9754 151.417 93.3654 151.607 93.6854 151.987C94.0254 152.367 94.1954 152.817 94.1954 153.337C94.1954 153.757 94.0654 154.087 93.8054 154.327C93.5654 154.567 93.2354 154.687 92.8154 154.687ZM91.6754 160.087C91.6754 159.067 91.5354 158.317 91.2554 157.837C90.9754 157.337 90.4154 157.087 89.5754 157.087H88.9754V156.487H91.6754C92.4154 156.487 92.9654 156.587 93.3254 156.787C93.7054 156.967 93.9754 157.307 94.1354 157.807C94.2954 158.307 94.3754 159.067 94.3754 160.087V170.587H91.6754V160.087ZM103.318 170.887C101.018 170.887 99.4682 170.487 98.6682 169.687C98.3282 169.347 98.1182 168.967 98.0382 168.547C97.9582 168.107 97.9182 167.437 97.9182 166.537H98.5182C98.6982 167.537 99.1282 168.317 99.8082 168.877C100.508 169.417 101.478 169.687 102.718 169.687C103.818 169.687 104.638 169.497 105.178 169.117C105.738 168.737 106.018 168.227 106.018 167.587C106.018 167.007 105.798 166.507 105.358 166.087C104.938 165.667 104.258 165.267 103.318 164.887L101.518 164.137C100.318 163.657 99.4182 163.097 98.8182 162.457C98.2182 161.817 97.9182 161.027 97.9182 160.087C97.9182 158.867 98.3782 157.917 99.2982 157.237C100.218 156.537 101.408 156.187 102.868 156.187C105.068 156.187 106.568 156.587 107.368 157.387C107.708 157.727 107.918 158.107 107.998 158.527C108.078 158.947 108.118 159.617 108.118 160.537H107.518C107.358 159.537 106.938 158.767 106.258 158.227C105.578 157.667 104.648 157.387 103.468 157.387C102.528 157.387 101.788 157.587 101.248 157.987C100.728 158.367 100.468 158.867 100.468 159.487C100.468 160.527 101.268 161.377 102.868 162.037L104.668 162.787C106.028 163.347 107.018 163.947 107.638 164.587C108.258 165.207 108.568 166.007 108.568 166.987C108.568 168.207 108.078 169.167 107.098 169.867C106.118 170.547 104.858 170.887 103.318 170.887ZM116.707 170.887C114.407 170.887 112.857 170.487 112.057 169.687C111.717 169.347 111.507 168.967 111.427 168.547C111.347 168.107 111.307 167.437 111.307 166.537H111.907C112.087 167.537 112.517 168.317 113.197 168.877C113.897 169.417 114.867 169.687 116.107 169.687C117.207 169.687 118.027 169.497 118.567 169.117C119.127 168.737 119.407 168.227 119.407 167.587C119.407 167.007 119.187 166.507 118.747 166.087C118.327 165.667 117.647 165.267 116.707 164.887L114.907 164.137C113.707 163.657 112.807 163.097 112.207 162.457C111.607 161.817 111.307 161.027 111.307 160.087C111.307 158.867 111.767 157.917 112.687 157.237C113.607 156.537 114.797 156.187 116.257 156.187C118.457 156.187 119.957 156.587 120.757 157.387C121.097 157.727 121.307 158.107 121.387 158.527C121.467 158.947 121.507 159.617 121.507 160.537H120.907C120.747 159.537 120.327 158.767 119.647 158.227C118.967 157.667 118.037 157.387 116.857 157.387C115.917 157.387 115.177 157.587 114.637 157.987C114.117 158.367 113.857 158.867 113.857 159.487C113.857 160.527 114.657 161.377 116.257 162.037L118.057 162.787C119.417 163.347 120.407 163.947 121.027 164.587C121.647 165.207 121.957 166.007 121.957 166.987C121.957 168.207 121.467 169.167 120.487 169.867C119.507 170.547 118.247 170.887 116.707 170.887ZM126.976 154.687C126.516 154.687 126.116 154.497 125.776 154.117C125.456 153.737 125.296 153.287 125.296 152.767C125.296 152.347 125.416 152.017 125.656 151.777C125.916 151.537 126.256 151.417 126.676 151.417C127.136 151.417 127.526 151.607 127.846 151.987C128.186 152.367 128.356 152.817 128.356 153.337C128.356 153.757 128.226 154.087 127.966 154.327C127.726 154.567 127.396 154.687 126.976 154.687ZM125.836 160.087C125.836 159.067 125.696 158.317 125.416 157.837C125.136 157.337 124.576 157.087 123.736 157.087H123.136V156.487H125.836C126.576 156.487 127.126 156.587 127.486 156.787C127.866 156.967 128.136 157.307 128.296 157.807C128.456 158.307 128.536 159.067 128.536 160.087V170.587H125.836V160.087ZM138.558 170.887C137.198 170.887 136.018 170.567 135.018 169.927C134.018 169.267 133.258 168.377 132.738 167.257C132.218 166.137 131.958 164.897 131.958 163.537C131.958 162.177 132.218 160.937 132.738 159.817C133.258 158.697 134.018 157.817 135.018 157.177C136.018 156.517 137.198 156.187 138.558 156.187C139.918 156.187 141.098 156.517 142.098 157.177C143.098 157.817 143.858 158.697 144.378 159.817C144.898 160.937 145.158 162.177 145.158 163.537C145.158 164.897 144.898 166.137 144.378 167.257C143.858 168.377 143.098 169.267 142.098 169.927C141.098 170.567 139.918 170.887 138.558 170.887ZM138.558 169.687C139.298 169.687 139.948 169.417 140.508 168.877C141.088 168.337 141.528 167.597 141.828 166.657C142.148 165.717 142.308 164.677 142.308 163.537C142.308 162.397 142.148 161.357 141.828 160.417C141.528 159.477 141.088 158.737 140.508 158.197C139.948 157.657 139.298 157.387 138.558 157.387C137.818 157.387 137.158 157.657 136.578 158.197C136.018 158.737 135.578 159.477 135.258 160.417C134.958 161.357 134.808 162.397 134.808 163.537C134.808 164.677 134.958 165.717 135.258 166.657C135.578 167.597 136.018 168.337 136.578 168.877C137.158 169.417 137.818 169.687 138.558 169.687ZM149.127 160.087C149.127 159.067 148.987 158.317 148.707 157.837C148.427 157.337 147.867 157.087 147.027 157.087H146.427V156.487H149.127C149.867 156.487 150.427 156.587 150.807 156.787C151.207 156.987 151.497 157.287 151.677 157.687H151.827C152.247 157.267 152.787 156.917 153.447 156.637C154.127 156.337 154.887 156.187 155.727 156.187C157.227 156.187 158.447 156.587 159.387 157.387C160.347 158.187 160.827 159.587 160.827 161.587V170.587H158.127V161.587C158.127 160.187 157.807 159.167 157.167 158.527C156.547 157.867 155.767 157.537 154.827 157.537C153.767 157.537 152.767 158.067 151.827 159.127V170.587H149.127V160.087ZM168.355 170.887C167.715 170.887 167.065 170.757 166.405 170.497C165.745 170.217 165.175 169.767 164.695 169.147C164.235 168.527 164.005 167.707 164.005 166.687C164.005 165.167 164.705 164.087 166.105 163.447C167.525 162.807 169.375 162.487 171.655 162.487H172.555C172.555 160.527 172.285 159.187 171.745 158.467C171.205 157.747 170.425 157.387 169.405 157.387C168.505 157.387 167.785 157.577 167.245 157.957C166.705 158.337 166.325 158.997 166.105 159.937H164.755C164.755 159.257 164.795 158.727 164.875 158.347C164.955 157.947 165.165 157.577 165.505 157.237C165.865 156.877 166.455 156.617 167.275 156.457C168.115 156.277 169.025 156.187 170.005 156.187C171.625 156.187 172.905 156.627 173.845 157.507C174.785 158.367 175.255 160.027 175.255 162.487V170.587H173.755L172.705 169.237H172.555C172.195 169.697 171.665 170.087 170.965 170.407C170.265 170.727 169.395 170.887 168.355 170.887ZM169.705 169.537C170.365 169.537 170.915 169.377 171.355 169.057C171.795 168.737 172.195 168.297 172.555 167.737V163.687H171.655C170.175 163.687 169.005 163.967 168.145 164.527C167.285 165.067 166.855 165.787 166.855 166.687C166.855 167.607 167.125 168.317 167.665 168.817C168.225 169.297 168.905 169.537 169.705 169.537ZM179.558 154.387C179.558 153.367 179.418 152.617 179.138 152.137C178.858 151.637 178.298 151.387 177.458 151.387H176.858V150.787H179.558C180.298 150.787 180.848 150.887 181.208 151.087C181.588 151.267 181.858 151.607 182.018 152.107C182.178 152.607 182.258 153.367 182.258 154.387V170.587H179.558V154.387Z" fill="white"/>
<defs>
<filter id="filter0_d" x="73.8518" y="110.877" width="71.8396" height="16.84" filterUnits="userSpaceOnUse" color-interpolation-filters="sRGB">
<feFlood flood-opacity="0" result="BackgroundImageFix"/>
<feColorMatrix in="SourceAlpha" type="matrix" values="0 0 0 0 0 0 0 0 0 0 0 0 0 0 0 0 0 0 127 0"/>
<feOffset dy="2"/>
<feGaussianBlur stdDeviation="2"/>
<feColorMatrix type="matrix" values="0 0 0 0 0.150395 0 0 0 0 0.139931 0 0 0 0 0.216667 0 0 0 0.29 0"/>
<feBlend mode="normal" in2="BackgroundImageFix" result="effect1_dropShadow"/>
<feBlend mode="normal" in="SourceGraphic" in2="effect1_dropShadow" result="shape"/>
</filter>
<linearGradient id="paint0_linear" x1="-19.186" y1="114.793" x2="251.337" y2="114.793" gradientUnits="userSpaceOnUse">
<stop offset="0.106383" stop-color="#FFC107"/>
<stop offset="0.888889" stop-color="#F06292"/>
</linearGradient>
<linearGradient id="paint1_linear" x1="24.2837" y1="130.023" x2="203.584" y2="130.023" gradientUnits="userSpaceOnUse">
<stop offset="0.106383" stop-color="#5B13BB"/>
<stop offset="0.888889" stop-color="#EF687C"/>
</linearGradient>
</defs>
</svg>
