<svg width="109" height="118" viewBox="0 0 109 118" fill="none" xmlns="http://www.w3.org/2000/svg">
<circle cx="54.5" cy="66.3478" r="51.3406" fill="white"/>
<mask id="mask0" mask-type="alpha" maskUnits="userSpaceOnUse" x="0" y="0" width="109" height="110">
<path d="M109 54.5118C109.001 61.67 107.592 68.7583 104.854 75.3719C102.116 81.9855 98.1023 87.9949 93.0418 93.0569C87.9813 98.1189 81.9734 102.134 75.3611 104.874C68.7488 107.614 61.6617 109.024 54.5045 109.024C40.049 109.024 26.1856 103.28 15.964 93.0575C5.74241 82.8345 0 68.9692 0 54.5118C0 40.0544 5.74241 26.1891 15.964 15.9661C26.1856 5.74318 40.049 0 54.5045 0C61.6617 -9.81715e-08 68.7488 1.41005 75.3611 4.14964C81.9734 6.88922 87.9813 10.9047 93.0418 15.9667C98.1023 21.0287 102.116 27.0381 104.854 33.6517C107.592 40.2653 109.001 47.3536 109 54.5118Z" fill="#F1F3F6"/>
</mask>
<g mask="url(#mask0)">
<path d="M98.8435 116.111H12.373C12.5304 114.58 13.3101 109.257 17.2012 102.453C21.8219 94.3617 42.422 95.5136 43.1158 94.3618C43.4163 93.8609 43.588 91.8219 43.6881 89.6828C43.8097 86.9069 43.8097 83.9593 43.8097 83.9593L55.6118 87.4363L67.414 83.9593C67.414 83.9593 67.414 86.8854 67.5284 89.6828C67.6357 91.8291 67.8002 93.8967 68.1078 94.4047C68.8231 95.5565 89.3946 94.4047 94.0225 102.496C97.9065 109.257 98.6933 114.58 98.8435 116.111Z" fill="#E1A387"/>
<path d="M98.8435 116.11H12.373C12.5304 114.579 13.3101 109.256 17.2012 102.452C21.0923 95.6487 36.4423 95.3697 41.5208 94.7687C42.4435 94.6542 43.0229 94.5398 43.1302 94.3609C43.1302 94.3609 55.3972 110.329 68.1221 94.3609C68.2366 94.5612 68.9662 94.69 70.1106 94.8188C75.5181 95.3911 90.2171 95.7775 94.0368 102.452C97.9064 109.256 98.6933 114.579 98.8435 116.11Z" fill="#860018"/>
<path d="M70.0951 94.8188C60.0812 108.748 48.136 101.115 41.4839 94.7687C42.4066 94.6542 42.986 94.5398 43.0933 94.3609C43.0933 94.3609 55.3604 110.329 68.0852 94.3609C68.2211 94.5612 68.9507 94.69 70.0951 94.8188Z" fill="#6B1524"/>
<path d="M35.413 59.8494C35.413 59.8494 29.9411 50.6059 27.6808 58.5258C25.4205 66.4457 30.8853 70.2232 34.4688 69.472C38.0524 68.7208 35.413 59.8494 35.413 59.8494Z" fill="#E1A387"/>
<path d="M34.7783 61.359C34.7783 61.359 31.0088 55.5067 29.6855 57.8676C28.8801 59.5367 28.5556 61.3973 28.7485 63.2406C28.7485 63.2406 29.4995 59.9424 31.9529 61.8097C31.9529 61.8097 29.5925 67.0896 34.4064 65.58C34.3778 65.6015 36.3591 63.9989 34.7783 61.359Z" fill="#CE8D75"/>
<path d="M74.6916 59.8494C74.6916 59.8494 80.1635 50.6059 82.4237 58.5258C84.684 66.4457 79.2193 70.2232 75.6357 69.472C72.0522 68.7208 74.6916 59.8494 74.6916 59.8494Z" fill="#E1A387"/>
<path d="M74.7676 61.9732C74.7676 61.9732 78.5372 56.1209 79.8605 58.4818C80.6661 60.1509 80.9929 62.0109 80.8046 63.8548C80.8046 63.8548 80.0464 60.5566 77.593 62.4239C77.593 62.4239 79.9534 67.7038 75.1396 66.1942C75.1396 66.2157 73.1654 64.6131 74.7676 61.9732Z" fill="#CE8D75"/>
<path d="M74.8324 74.9381C74.4175 81.7347 66.671 86.7643 61.6068 89.0107C58.7055 90.3639 55.4492 90.7598 52.3082 90.1411C33.1672 84.5106 33.7108 71.5398 34.5692 67.8982C35.4275 64.2566 34.2544 57.1666 36.5004 48.7531C36.7896 47.6643 37.2201 46.618 37.7808 45.6409C41.207 39.6599 48.51 37.7354 48.51 37.7354C61.1634 29.5579 70.0185 37.5923 72.9369 44.1743C73.1308 44.6041 73.3027 45.0434 73.4519 45.4907C75.6621 52.2659 75.2616 67.3115 74.8324 74.9381Z" fill="#F2C2AC"/>
<path fill-rule="evenodd" clip-rule="evenodd" d="M68.381 32.0706C68.4312 32.0582 68.4814 32.0461 68.5317 32.0345C68.9673 31.9275 69.4092 31.8486 69.8549 31.7984C70.2281 31.8022 70.6007 31.8285 70.9708 31.8771C71.3641 31.938 71.7516 32.0313 72.1295 32.1561C77.6372 34.0091 78.0735 42.6372 77.3297 50.1493L77.3296 50.1497C77.2724 50.679 77.2152 51.2083 77.1508 51.7233C76.7869 54.6097 76.2736 57.4753 75.613 60.3085C75.5466 60.6049 75.483 60.8657 75.4289 61.0876C75.3955 61.2246 75.3658 61.3467 75.3412 61.4532C75.2625 61.7823 75.2124 61.9612 75.2124 61.9612L75.0765 61.0597V60.9381C74.7832 58.6845 73.646 55.7727 72.2583 52.8108C70.6376 49.5338 68.8755 46.3297 66.9773 43.2074C63.6992 44.2725 58.7586 45.7224 52.4492 47.1215C51.2189 47.3934 49.9457 47.6652 48.6081 47.93C46.7913 48.2924 44.8839 48.6454 42.8859 48.9888C34.9534 50.3267 31.3412 48.0015 29.7604 45.011C29.6338 44.7786 29.5192 44.5398 29.4171 44.2956C27.9365 40.7184 29.0022 36.5187 29.0022 36.5187C29.4171 37.3987 30.3326 37.4846 31.6488 37.0196C31.8924 36.9349 32.1312 36.837 32.364 36.7262C34.1323 35.9473 36.4614 34.4422 39.1549 32.7018C43.6851 29.7744 49.246 26.181 54.9026 24.2562C56.023 23.8619 57.2058 23.6752 58.3932 23.7053C58.9555 23.7252 59.514 23.8043 60.0597 23.9414C61.8332 24.4253 63.4393 25.3881 64.702 26.7244C64.8951 26.9247 65.0882 27.1251 65.2742 27.3325C66.4207 28.6591 67.3985 30.1226 68.1854 31.6895C68.2517 31.8161 68.3169 31.9432 68.381 32.0706Z" fill="#A16929"/>
<path d="M35.3985 37.1686C35.1625 37.884 34.3971 51.9495 35.1267 58.3312L41.8718 40.6384L35.3985 37.1686Z" fill="#A16929"/>
<path d="M65.2908 27.3049C63.5526 29.2723 61.7859 31.204 59.8547 33.0284C54.5115 38.108 48.3243 42.5151 41.1143 44.4754C37.5379 45.434 33.3606 46.035 29.7628 45.0119C29.6361 44.7795 29.5216 44.5407 29.4194 44.2965C29.727 44.3895 30.0346 44.461 30.3708 44.5326C36.8083 45.849 43.9611 43.5095 49.5045 40.24C55.3163 36.6511 60.4635 32.0837 64.7186 26.7397C64.9117 26.8971 65.1048 27.0974 65.2908 27.3049Z" fill="#C98643"/>
<path d="M60.0769 23.9131C56.8152 29.286 52.5307 34.0222 47.5666 37.0914C43.5324 39.5812 38.9833 40.5112 34.4412 38.9874C33.3208 38.6396 32.3425 37.9396 31.6516 36.9913C31.8952 36.9066 32.134 36.8087 32.3669 36.6979C32.7894 37.1645 33.3031 37.5394 33.8761 37.7997C36.2767 38.8736 38.9645 39.125 41.5225 38.5152C45.8714 37.4635 49.6552 34.5516 52.688 31.3608C54.8768 29.0269 56.7963 26.4542 58.4103 23.6913C58.9721 23.7065 59.5307 23.7808 60.0769 23.9131Z" fill="#C98643"/>
<path d="M68.8509 32.9769C65.7074 36.6558 62.2042 40.0112 58.3934 42.9931C56.5042 44.495 54.5186 45.8716 52.4495 47.114C51.2192 47.3859 49.946 47.6577 48.6084 47.9224C52.5617 46.1268 56.2106 43.725 59.4235 40.8038C62.5994 38.0043 65.5352 34.9434 68.1999 31.6534C68.4288 32.097 68.6434 32.5405 68.8509 32.9769Z" fill="#C98643"/>
<path d="M43.008 53.3603C40.8621 54.6767 39.5818 57.9033 40.8621 59.9852C40.9194 60.0926 41.1411 60.0496 41.1268 59.928C41.0253 58.9648 41.1424 57.9911 41.4694 57.0794C41.7963 56.1677 42.3247 55.3415 43.0152 54.6624C43.9375 53.8215 45.1361 53.348 46.3841 53.3317C47.8147 53.2387 48.4441 54.5193 49.5671 54.9557C49.796 55.0488 50.0893 54.8985 50.0106 54.6624C49.1236 51.9867 45.2039 52.0296 43.008 53.3603Z" fill="#390A0A"/>
<path d="M50.5824 59.3708C50.5824 62.8407 48.4366 65.6595 45.8187 65.6595C43.2007 65.6595 41.062 62.8407 41.062 59.3708C41.062 55.901 43.2079 53.0822 45.8187 53.0822C48.4294 53.0822 50.5824 55.901 50.5824 59.3708Z" fill="white"/>
<path d="M49.5755 59.5562C49.5755 62.1389 47.9518 64.2352 45.949 64.2352C43.9462 64.2352 42.3225 62.1389 42.3225 59.5562C42.3225 56.9735 43.9462 54.8701 45.949 54.8701C47.9518 54.8701 49.5755 56.9878 49.5755 59.5562Z" fill="#3D79CA"/>
<path d="M48.9952 59.6277C48.9952 61.774 47.6647 63.5769 46.0267 63.5769C44.3887 63.5769 43.0583 61.8098 43.0583 59.6277C43.0583 57.4456 44.3887 55.6785 46.0267 55.6785C47.6647 55.6785 48.9952 57.4528 48.9952 59.6277Z" fill="#390A0A"/>
<path d="M49.5738 56.2294C49.5738 56.6587 48.7298 57.0021 47.6926 57.0021C46.6555 57.0021 45.8186 56.6587 45.8186 56.2294C45.8186 55.8001 46.6626 55.4496 47.6926 55.4496C48.7226 55.4496 49.5738 55.793 49.5738 56.2294Z" fill="white"/>
<path d="M67.1843 53.3603C69.3302 54.6767 70.6105 57.9033 69.3302 59.9852C69.273 60.0926 69.0512 60.0496 69.0655 59.928C69.167 58.9648 69.0499 57.9911 68.723 57.0794C68.396 56.1677 67.8676 55.3415 67.1772 54.6624C66.2574 53.822 65.0611 53.3484 63.8154 53.3317C62.3848 53.2387 61.7482 54.5193 60.6252 54.9557C60.3963 55.0488 60.1031 54.8985 60.1818 54.6624C61.0687 51.9867 64.9884 52.0296 67.1843 53.3603Z" fill="#390A0A"/>
<path d="M68.7879 59.3708C68.7879 62.8407 66.6421 65.6595 64.0313 65.6595C61.4205 65.6595 59.2747 62.8407 59.2747 59.3708C59.2747 55.901 61.4205 53.0822 64.0313 53.0822C66.6421 53.0822 68.7879 55.901 68.7879 59.3708Z" fill="white"/>
<path d="M67.7784 59.5562C67.7784 62.1389 66.1547 64.2352 64.1519 64.2352C62.1491 64.2352 60.5254 62.1604 60.5254 59.5562C60.5254 56.952 62.1491 54.8701 64.1447 54.8701C66.1404 54.8701 67.7784 56.9878 67.7784 59.5562Z" fill="#3D79CA"/>
<path d="M67.2075 59.6277C67.2075 61.774 65.877 63.5769 64.2318 63.5769C62.5867 63.5769 61.2634 61.8098 61.2634 59.6277C61.2634 57.4456 62.5938 55.6785 64.2318 55.6785C65.8698 55.6785 67.2075 57.4528 67.2075 59.6277Z" fill="#390A0A"/>
<path d="M67.7781 56.2294C67.7781 56.6587 66.9412 57.0021 65.9041 57.0021C64.8669 57.0021 64.03 56.6587 64.03 56.2294C64.03 55.8001 64.8669 55.4496 65.9041 55.4496C66.9412 55.4496 67.7781 55.793 67.7781 56.2294Z" fill="white"/>
<path d="M54.9637 56.3363C54.9637 56.3363 53.5331 54.9054 53.2756 59.9993C53.0181 65.0932 53.2756 70.4161 53.2756 70.4161C53.2756 70.4161 49.8995 68.4414 51.0225 71.2603C51.6305 72.777 53.0611 73.5568 54.5989 73.9575C55.1576 74.119 55.7507 74.1172 56.3084 73.9524C56.8661 73.7876 57.365 73.4666 57.7461 73.0274C58.1467 72.6339 60.2353 70.5162 59.5773 69.858C59.2625 69.5361 57.4314 70.2944 56.9665 70.4161C56.9522 70.4161 57.4958 55.213 54.9637 56.3363Z" fill="#E1A387"/>
<path d="M63.3861 76.9635C63.3861 76.9635 56.7555 88.3317 47.5999 77.3928C47.5999 77.3928 52.9359 75.5899 54.8886 77.1924L55.6039 78.0009C55.6039 78.0009 57.6639 75.4611 63.3861 76.9635Z" fill="#CE8D75"/>
<path d="M63.3861 76.963C63.3861 76.963 56.7555 88.3313 47.5999 77.3923C47.6499 77.3923 56.5981 81.4989 63.3861 76.963Z" fill="#E1A387"/>
<path d="M51.4722 50.7676C51.4722 51.9693 48.4065 51.2919 44.6597 51.2919C40.9128 51.2919 37.8472 51.9693 37.8472 50.7676C37.8472 49.5658 40.906 46.9395 44.6597 46.9395C48.4134 46.9395 51.4722 49.5658 51.4722 50.7676Z" fill="#343434"/>
<path d="M71.1509 50.7676C71.1509 51.9693 68.0921 51.2919 64.3384 51.2919C60.5847 51.2919 57.5259 51.9693 57.5259 50.7676C57.5259 49.5658 60.5847 46.9395 64.3384 46.9395C68.0921 46.9395 71.1509 49.5658 71.1509 50.7676Z" fill="#343434"/>
</g>
</svg>
