<svg width="1487" height="517" viewBox="0 0 1487 517" fill="none" xmlns="http://www.w3.org/2000/svg">
<line x1="92.1154" y1="407.068" x2="283.115" y2="408.117" stroke="#5B13BB" stroke-width="42"/>
<line x1="92" y1="145.963" x2="283" y2="145.963" stroke="#5B13BB" stroke-width="42"/>
<line x1="113" y1="424.337" x2="113" y2="125" stroke="#5B13BB" stroke-width="42"/>
<line y1="60.5" x2="283" y2="60.5" stroke="#5B13BB" stroke-width="45"/>
<line y1="-22.5" x2="283.004" y2="-22.5" transform="matrix(0.999983 0.00581838 -0.0051885 0.999987 0 514.534)" stroke="#5B13BB" stroke-width="45"/>
<line x1="22.5" y1="510" x2="22.5" y2="39" stroke="#5B13BB" stroke-width="45"/>
<line x1="340.077" y1="212.786" x2="453.077" y2="213.407" stroke="#5B13BB" stroke-width="28"/>
<line x1="340" y1="38.9397" x2="453" y2="38.9397" stroke="#5B13BB" stroke-width="28"/>
<line x1="353.939" y1="224.302" x2="353.939" y2="25.0001" stroke="#5B13BB" stroke-width="28"/>
<line x1="340.077" y1="501.786" x2="453.077" y2="502.407" stroke="#5B13BB" stroke-width="28"/>
<line x1="340" y1="327.94" x2="453" y2="327.94" stroke="#5B13BB" stroke-width="28"/>
<line x1="353.939" y1="513.302" x2="353.939" y2="314" stroke="#5B13BB" stroke-width="28"/>
<path d="M467.722 27.1587H495.517V227H467.722V27.1587ZM524.851 75.7183H552.646V189.427C552.646 196.092 553.671 200.743 555.722 203.379C557.773 205.943 560.776 207.225 564.731 207.225C567.514 207.225 570.224 206.456 572.861 204.917C575.498 203.379 577.878 201.182 580.002 198.326V75.7183H607.797V227H586.594L583.847 210.85H583.737C581.54 214.292 579.196 217.186 576.706 219.529C574.289 221.8 571.726 223.631 569.016 225.022C566.379 226.341 563.669 227.293 560.886 227.879C558.103 228.465 555.319 228.758 552.536 228.758C543.674 228.758 536.826 225.682 531.992 219.529C527.231 213.377 524.851 204.075 524.851 191.624V75.7183ZM636.911 27.1587H664.707V67.4785L663.828 87.4736L663.938 87.5835C665.183 85.8257 666.611 84.1411 668.222 82.5298C669.907 80.9185 671.774 79.4902 673.825 78.2451C675.949 76.9268 678.256 75.9014 680.747 75.1689C683.31 74.4365 686.093 74.0703 689.096 74.0703C690.634 74.0703 692.465 74.2168 694.589 74.5098C696.787 74.8027 699.021 75.5352 701.291 76.707C703.635 77.8789 705.942 79.6367 708.212 81.9805C710.556 84.251 712.607 87.4004 714.365 91.4287C716.196 95.457 717.661 100.474 718.759 106.48C719.931 112.486 720.517 119.773 720.517 128.343V174.156C720.517 182.725 719.931 190.013 718.759 196.019C717.661 202.024 716.196 207.078 714.365 211.18C712.534 215.208 710.446 218.394 708.103 220.738C705.759 223.082 703.378 224.839 700.961 226.011C698.544 227.183 696.201 227.916 693.93 228.208C691.66 228.575 689.682 228.758 687.998 228.758C684.482 228.758 681.296 228.318 678.439 227.439C675.656 226.561 673.166 225.389 670.969 223.924C668.845 222.386 666.94 220.665 665.256 218.76C663.645 216.856 662.216 214.915 660.971 212.938L658.664 227H636.911V27.1587ZM664.707 196.348C665.292 197.74 665.988 199.095 666.794 200.413C667.673 201.731 668.662 202.903 669.76 203.929C670.859 204.881 672.141 205.687 673.605 206.346C675.07 206.932 676.718 207.225 678.549 207.225C680.6 207.225 682.468 206.858 684.152 206.126C685.837 205.32 687.302 203.929 688.547 201.951C689.792 199.9 690.744 197.081 691.403 193.492C692.136 189.903 692.502 185.289 692.502 179.649V121.751C692.502 116.111 692.136 111.534 691.403 108.018C690.744 104.429 689.792 101.609 688.547 99.5586C687.375 97.5078 685.947 96.1162 684.262 95.3838C682.578 94.6514 680.71 94.2852 678.659 94.2852C675.217 94.2852 672.36 95.3105 670.09 97.3613C667.893 99.3389 666.098 101.719 664.707 104.502V196.348ZM782.15 228.648C775.632 228.648 769.846 227.439 764.792 225.022C759.812 222.605 755.6 218.833 752.158 213.707C748.715 208.58 746.115 202.024 744.357 194.041C742.6 185.984 741.721 176.316 741.721 165.037V136.473C741.721 126.878 742.417 118.675 743.808 111.863C745.273 104.979 747.141 99.229 749.411 94.6147C751.755 89.9272 754.428 86.2285 757.431 83.5186C760.507 80.8086 763.657 78.7578 766.879 77.3662C770.102 75.9014 773.288 74.9858 776.438 74.6196C779.66 74.1802 782.626 73.9604 785.336 73.9604C790.317 73.9604 795.114 74.7295 799.729 76.2676C804.343 77.7324 808.408 80.2959 811.923 83.958C815.439 87.5469 818.222 92.3809 820.273 98.46C822.397 104.539 823.459 112.12 823.459 121.202C823.459 124.278 823.349 127.391 823.129 130.54C822.983 133.689 822.763 136.802 822.47 139.878C822.177 142.881 821.774 145.811 821.262 148.667C820.822 151.524 820.346 154.161 819.833 156.578H769.626V171.958C769.626 178.55 769.882 184.117 770.395 188.658C770.908 193.125 771.75 196.751 772.922 199.534C774.167 202.244 775.815 204.222 777.866 205.467C779.99 206.639 782.626 207.225 785.776 207.225C787.46 207.225 789.108 206.895 790.72 206.236C792.331 205.503 793.723 204.332 794.895 202.72C796.14 201.109 797.128 198.985 797.861 196.348C798.593 193.638 798.959 190.306 798.959 186.351V181.626H822.141V187.449C822.141 201.805 818.698 212.278 811.813 218.87C805.002 225.389 795.114 228.648 782.15 228.648ZM797.531 137.901C797.604 137.095 797.678 136.033 797.751 134.715C797.824 133.323 797.861 131.895 797.861 130.43C797.934 128.965 797.971 127.537 797.971 126.146C797.971 124.681 797.971 123.436 797.971 122.41C797.971 112.449 796.799 105.271 794.455 100.877C792.111 96.4824 788.632 94.2852 784.018 94.2852C781.601 94.2852 779.477 94.8711 777.646 96.043C775.815 97.1416 774.313 99.0459 773.142 101.756C771.97 104.393 771.091 107.908 770.505 112.303C769.919 116.697 769.626 122.154 769.626 128.672V137.901H797.531ZM924.094 228.758C922.409 228.758 920.432 228.575 918.161 228.208C915.891 227.916 913.547 227.183 911.13 226.011C908.713 224.839 906.333 223.082 903.989 220.738C901.645 218.394 899.558 215.208 897.727 211.18C895.896 207.078 894.394 202.024 893.222 196.019C892.124 190.013 891.574 182.725 891.574 174.156V126.146C891.574 117.649 892.16 110.472 893.332 104.612C894.577 98.7529 896.188 93.9189 898.166 90.1104C900.144 86.2285 902.341 83.2256 904.758 81.1016C907.248 78.9043 909.702 77.293 912.119 76.2676C914.609 75.2422 916.953 74.6196 919.15 74.3999C921.42 74.1802 923.288 74.0703 924.753 74.0703C927.463 74.0703 930.026 74.4365 932.443 75.1689C934.86 75.9014 937.058 76.8901 939.035 78.1353C941.013 79.3071 942.771 80.6621 944.309 82.2002C945.847 83.665 947.128 85.1665 948.154 86.7046L948.264 86.5947L947.385 67.4785V27.1587H975.07V227H953.427L951.01 212.938C949.765 214.915 948.337 216.856 946.726 218.76C945.114 220.665 943.21 222.386 941.013 223.924C938.815 225.389 936.325 226.561 933.542 227.439C930.759 228.318 927.609 228.758 924.094 228.758ZM933.542 207.225C935.373 207.225 936.984 206.932 938.376 206.346C939.841 205.687 941.123 204.881 942.221 203.929C943.393 202.903 944.382 201.731 945.188 200.413C946.066 199.095 946.799 197.74 947.385 196.348V105.381C945.993 102.305 944.125 99.7051 941.782 97.5811C939.511 95.3838 936.728 94.2852 933.432 94.2852C931.381 94.2852 929.514 94.6514 927.829 95.3838C926.145 96.1162 924.68 97.5078 923.435 99.5586C922.189 101.536 921.201 104.319 920.468 107.908C919.809 111.424 919.479 116.001 919.479 121.641V179.649C919.479 185.289 919.809 189.903 920.468 193.492C921.201 197.081 922.189 199.9 923.435 201.951C924.68 203.929 926.145 205.32 927.829 206.126C929.587 206.858 931.491 207.225 933.542 207.225ZM1041.76 228.648C1038.53 228.648 1035.24 228.392 1031.87 227.879C1028.57 227.366 1025.35 226.304 1022.2 224.693C1019.13 223.082 1016.2 220.774 1013.41 217.771C1010.7 214.769 1008.32 210.813 1006.27 205.906C1004.22 200.999 1002.61 194.957 1001.44 187.779C1000.27 180.601 999.68 172.032 999.68 162.071V138.34C999.68 128.526 1000.27 120.14 1001.44 113.182C1002.68 106.15 1004.33 100.254 1006.38 95.4937C1008.51 90.7329 1010.96 86.9609 1013.74 84.1777C1016.53 81.3213 1019.46 79.1606 1022.53 77.6958C1025.68 76.1577 1028.9 75.1689 1032.2 74.7295C1035.5 74.2168 1038.72 73.9604 1041.87 73.9604C1044.87 73.9604 1047.98 74.1802 1051.21 74.6196C1054.43 75.0591 1057.58 76.0112 1060.65 77.4761C1063.73 78.8677 1066.62 80.9917 1069.33 83.8481C1072.12 86.6313 1074.53 90.4033 1076.58 95.1641C1078.71 99.9248 1080.36 105.857 1081.53 112.962C1082.77 119.993 1083.4 128.453 1083.4 138.34V162.071C1083.4 171.885 1082.77 180.345 1081.53 187.449C1080.28 194.554 1078.6 200.56 1076.47 205.467C1074.35 210.374 1071.9 214.366 1069.11 217.442C1066.33 220.445 1063.4 222.789 1060.32 224.473C1057.25 226.158 1054.1 227.256 1050.88 227.769C1047.73 228.355 1044.69 228.648 1041.76 228.648ZM1041.98 207.225C1044.47 207.225 1046.55 206.602 1048.24 205.357C1050 204.039 1051.39 201.915 1052.41 198.985C1053.51 196.055 1054.28 192.21 1054.72 187.449C1055.23 182.615 1055.49 176.646 1055.49 169.542V132.298C1055.49 125.193 1055.23 119.224 1054.72 114.39C1054.28 109.556 1053.51 105.674 1052.41 102.745C1051.39 99.7417 1050 97.5811 1048.24 96.2627C1046.55 94.9443 1044.47 94.2852 1041.98 94.2852C1039.34 94.2852 1037.11 94.9443 1035.28 96.2627C1033.52 97.5811 1032.05 99.7417 1030.88 102.745C1029.71 105.674 1028.87 109.556 1028.35 114.39C1027.84 119.224 1027.58 125.193 1027.58 132.298V169.542C1027.58 176.646 1027.84 182.615 1028.35 187.449C1028.87 192.21 1029.71 196.055 1030.88 198.985C1032.05 201.915 1033.52 204.039 1035.28 205.357C1037.11 206.602 1039.34 207.225 1041.98 207.225ZM505.405 511.648C502.182 511.648 498.886 511.392 495.517 510.879C492.221 510.366 488.999 509.304 485.849 507.693C482.773 506.082 479.843 503.774 477.06 500.771C474.35 497.769 471.97 493.813 469.919 488.906C467.868 483.999 466.257 477.957 465.085 470.779C463.913 463.601 463.327 455.032 463.327 445.071V421.34C463.327 411.526 463.913 403.14 465.085 396.182C466.33 389.15 467.978 383.254 470.029 378.494C472.153 373.733 474.606 369.961 477.39 367.178C480.173 364.321 483.103 362.161 486.179 360.696C489.328 359.158 492.551 358.169 495.847 357.729C499.143 357.217 502.365 356.96 505.515 356.96C508.518 356.96 511.63 357.18 514.853 357.62C518.076 358.059 521.225 359.011 524.301 360.476C527.377 361.868 530.271 363.992 532.98 366.848C535.764 369.631 538.181 373.403 540.231 378.164C542.355 382.925 544.003 388.857 545.175 395.962C546.42 402.993 547.043 411.453 547.043 421.34V445.071C547.043 454.885 546.42 463.345 545.175 470.449C543.93 477.554 542.246 483.56 540.122 488.467C537.998 493.374 535.544 497.366 532.761 500.442C529.978 503.445 527.048 505.789 523.972 507.473C520.896 509.158 517.746 510.256 514.523 510.769C511.374 511.355 508.334 511.648 505.405 511.648ZM505.625 490.225C508.115 490.225 510.202 489.602 511.887 488.357C513.645 487.039 515.036 484.915 516.062 481.985C517.16 479.055 517.929 475.21 518.369 470.449C518.881 465.615 519.138 459.646 519.138 452.542V415.298C519.138 408.193 518.881 402.224 518.369 397.39C517.929 392.556 517.16 388.674 516.062 385.745C515.036 382.742 513.645 380.581 511.887 379.263C510.202 377.944 508.115 377.285 505.625 377.285C502.988 377.285 500.754 377.944 498.923 379.263C497.165 380.581 495.7 382.742 494.528 385.745C493.356 388.674 492.514 392.556 492.001 397.39C491.489 402.224 491.232 408.193 491.232 415.298V452.542C491.232 459.646 491.489 465.615 492.001 470.449C492.514 475.21 493.356 479.055 494.528 481.985C495.7 484.915 497.165 487.039 498.923 488.357C500.754 489.602 502.988 490.225 505.625 490.225ZM572.092 310.159H599.887V510H572.092V310.159ZM665.476 511.648C658.957 511.648 653.171 510.439 648.117 508.022C643.137 505.605 638.925 501.833 635.483 496.707C632.041 491.58 629.44 485.024 627.683 477.041C625.925 468.984 625.046 459.316 625.046 448.037V419.473C625.046 409.878 625.742 401.675 627.133 394.863C628.598 387.979 630.466 382.229 632.736 377.615C635.08 372.927 637.753 369.229 640.756 366.519C643.833 363.809 646.982 361.758 650.205 360.366C653.427 358.901 656.613 357.986 659.763 357.62C662.985 357.18 665.952 356.96 668.662 356.96C673.642 356.96 678.439 357.729 683.054 359.268C687.668 360.732 691.733 363.296 695.249 366.958C698.764 370.547 701.547 375.381 703.598 381.46C705.722 387.539 706.784 395.12 706.784 404.202C706.784 407.278 706.674 410.391 706.455 413.54C706.308 416.689 706.088 419.802 705.795 422.878C705.502 425.881 705.1 428.811 704.587 431.667C704.147 434.524 703.671 437.161 703.159 439.578H652.951V454.958C652.951 461.55 653.208 467.117 653.72 471.658C654.233 476.125 655.075 479.751 656.247 482.534C657.492 485.244 659.14 487.222 661.191 488.467C663.315 489.639 665.952 490.225 669.101 490.225C670.786 490.225 672.434 489.895 674.045 489.236C675.656 488.503 677.048 487.332 678.22 485.72C679.465 484.109 680.454 481.985 681.186 479.348C681.918 476.638 682.285 473.306 682.285 469.351V464.626H705.466V470.449C705.466 484.805 702.023 495.278 695.139 501.87C688.327 508.389 678.439 511.648 665.476 511.648ZM680.856 420.901C680.93 420.095 681.003 419.033 681.076 417.715C681.149 416.323 681.186 414.895 681.186 413.43C681.259 411.965 681.296 410.537 681.296 409.146C681.296 407.681 681.296 406.436 681.296 405.41C681.296 395.449 680.124 388.271 677.78 383.877C675.437 379.482 671.958 377.285 667.343 377.285C664.926 377.285 662.802 377.871 660.971 379.043C659.14 380.142 657.639 382.046 656.467 384.756C655.295 387.393 654.416 390.908 653.83 395.303C653.244 399.697 652.951 405.154 652.951 411.672V420.901H680.856ZM765.561 511.648C752.817 511.648 743.076 506.411 736.337 495.938C729.672 485.464 726.34 469.497 726.34 448.037V419.473C726.34 409.878 727.036 401.675 728.427 394.863C729.819 387.979 731.65 382.229 733.92 377.615C736.264 372.927 738.901 369.229 741.831 366.519C744.833 363.809 747.91 361.758 751.059 360.366C754.208 358.901 757.321 357.986 760.397 357.62C763.474 357.18 766.293 356.96 768.857 356.96C773.984 356.96 778.671 357.656 782.919 359.048C787.167 360.366 790.83 362.417 793.906 365.2C796.982 367.91 799.362 371.353 801.047 375.527C802.731 379.702 803.574 384.609 803.574 390.249C803.574 393.765 803.391 396.804 803.024 399.368C802.731 401.858 802.292 404.275 801.706 406.619H779.514V401.565C779.514 393.948 778.598 388.015 776.767 383.767C775.009 379.446 772.08 377.285 767.978 377.285C765.708 377.285 763.73 377.834 762.045 378.933C760.361 379.958 758.933 381.753 757.761 384.316C756.662 386.88 755.82 390.322 755.234 394.644C754.721 398.965 754.465 404.385 754.465 410.903V453.86C754.465 460.452 754.685 466.055 755.124 470.669C755.563 475.283 756.333 479.055 757.431 481.985C758.53 484.841 759.995 486.929 761.826 488.247C763.657 489.565 765.927 490.225 768.637 490.225C770.029 490.225 771.384 489.895 772.702 489.236C774.021 488.503 775.156 487.332 776.108 485.72C777.133 484.109 777.939 481.985 778.525 479.348C779.184 476.638 779.514 473.306 779.514 469.351V464.626H803.464V470.449C803.464 484.805 800.278 495.278 793.906 501.87C787.607 508.389 778.159 511.648 765.561 511.648ZM840.927 337.075C835.8 337.075 831.735 335.537 828.732 332.461C825.803 329.385 824.338 324.88 824.338 318.948C824.338 315.652 824.704 312.905 825.437 310.708C826.242 308.438 827.341 306.643 828.732 305.325C830.197 303.933 831.955 302.944 834.006 302.358C836.057 301.699 838.4 301.37 841.037 301.37C846.53 301.37 850.705 302.761 853.562 305.544C856.418 308.328 857.846 312.795 857.846 318.948C857.846 324.661 856.381 329.128 853.452 332.351C850.595 335.5 846.42 337.075 840.927 337.075ZM826.535 358.718H854.331V510H826.535V358.718ZM921.567 511.648C918.344 511.648 915.048 511.392 911.679 510.879C908.383 510.366 905.161 509.304 902.011 507.693C898.935 506.082 896.005 503.774 893.222 500.771C890.512 497.769 888.132 493.813 886.081 488.906C884.03 483.999 882.419 477.957 881.247 470.779C880.075 463.601 879.489 455.032 879.489 445.071V421.34C879.489 411.526 880.075 403.14 881.247 396.182C882.492 389.15 884.14 383.254 886.191 378.494C888.315 373.733 890.769 369.961 893.552 367.178C896.335 364.321 899.265 362.161 902.341 360.696C905.49 359.158 908.713 358.169 912.009 357.729C915.305 357.217 918.527 356.96 921.677 356.96C924.68 356.96 927.792 357.18 931.015 357.62C934.238 358.059 937.387 359.011 940.463 360.476C943.54 361.868 946.433 363.992 949.143 366.848C951.926 369.631 954.343 373.403 956.394 378.164C958.518 382.925 960.166 388.857 961.337 395.962C962.583 402.993 963.205 411.453 963.205 421.34V445.071C963.205 454.885 962.583 463.345 961.337 470.449C960.092 477.554 958.408 483.56 956.284 488.467C954.16 493.374 951.706 497.366 948.923 500.442C946.14 503.445 943.21 505.789 940.134 507.473C937.058 509.158 933.908 510.256 930.686 510.769C927.536 511.355 924.497 511.648 921.567 511.648ZM921.787 490.225C924.277 490.225 926.364 489.602 928.049 488.357C929.807 487.039 931.198 484.915 932.224 481.985C933.322 479.055 934.091 475.21 934.531 470.449C935.043 465.615 935.3 459.646 935.3 452.542V415.298C935.3 408.193 935.043 402.224 934.531 397.39C934.091 392.556 933.322 388.674 932.224 385.745C931.198 382.742 929.807 380.581 928.049 379.263C926.364 377.944 924.277 377.285 921.787 377.285C919.15 377.285 916.916 377.944 915.085 379.263C913.327 380.581 911.862 382.742 910.69 385.745C909.519 388.674 908.676 392.556 908.164 397.39C907.651 402.224 907.395 408.193 907.395 415.298V452.542C907.395 459.646 907.651 465.615 908.164 470.449C908.676 475.21 909.519 479.055 910.69 481.985C911.862 484.915 913.327 487.039 915.085 488.357C916.916 489.602 919.15 490.225 921.787 490.225ZM987.814 358.718H1009.24L1011.76 374.868V374.978C1013.96 371.536 1016.31 368.679 1018.8 366.409C1021.36 364.065 1024 362.197 1026.71 360.806C1029.42 359.414 1032.16 358.425 1034.95 357.839C1037.8 357.253 1040.62 356.96 1043.41 356.96C1052.27 356.96 1059.08 360.073 1063.84 366.299C1068.67 372.451 1071.09 381.716 1071.09 394.094V510H1043.3V395.083C1043.3 388.418 1042.27 383.804 1040.22 381.24C1038.17 378.604 1035.17 377.285 1031.21 377.285C1028.43 377.285 1025.64 378.201 1022.86 380.032C1020.15 381.863 1017.73 384.39 1015.61 387.612V510H987.814V358.718ZM1120.75 511.648C1116.06 511.648 1111.89 510.732 1108.22 508.901C1104.64 506.997 1101.6 504.434 1099.11 501.211C1096.62 497.988 1094.71 494.18 1093.39 489.785C1092.15 485.317 1091.53 480.483 1091.53 475.283C1091.53 469.058 1092.29 463.528 1093.83 458.694C1095.37 453.86 1097.6 449.502 1100.53 445.62C1103.54 441.738 1107.24 438.223 1111.63 435.073C1116.02 431.851 1121.12 428.811 1126.9 425.955C1129.68 424.563 1132.8 423.171 1136.24 421.78C1139.76 420.315 1142.87 419.07 1145.58 418.044V398.049C1145.58 395.12 1145.47 392.41 1145.25 389.919C1145.03 387.356 1144.48 385.159 1143.6 383.328C1142.79 381.423 1141.55 379.958 1139.87 378.933C1138.18 377.834 1135.87 377.285 1132.94 377.285C1130.97 377.285 1129.03 377.651 1127.12 378.384C1125.29 379.116 1123.64 380.361 1122.18 382.119C1120.79 383.877 1119.65 386.221 1118.77 389.15C1117.97 392.08 1117.56 395.706 1117.56 400.027V406.619H1096.36C1095.7 403.762 1095.19 401.162 1094.82 398.818C1094.53 396.401 1094.38 394.021 1094.38 391.677C1094.38 386.038 1095.33 381.057 1097.24 376.736C1099.22 372.415 1101.93 368.789 1105.37 365.859C1108.88 362.93 1113.06 360.732 1117.89 359.268C1122.73 357.729 1128.04 356.96 1133.82 356.96C1141.37 356.96 1147.63 357.803 1152.61 359.487C1157.59 361.099 1161.54 363.552 1164.47 366.848C1167.48 370.144 1169.56 374.282 1170.74 379.263C1171.98 384.243 1172.6 390.066 1172.6 396.731V510H1151.95L1149.97 497.036C1146.97 501.357 1142.94 504.873 1137.89 507.583C1132.91 510.293 1127.19 511.648 1120.75 511.648ZM1133.05 490.225C1135.4 490.225 1137.67 489.639 1139.87 488.467C1142.14 487.222 1144.04 485.72 1145.58 483.962V436.611C1144.11 437.197 1142.47 437.893 1140.63 438.699C1138.8 439.504 1136.83 440.566 1134.7 441.885C1132.72 443.13 1130.78 444.631 1128.88 446.389C1126.97 448.147 1125.25 450.234 1123.72 452.651C1122.25 455.068 1121.04 457.815 1120.09 460.891C1119.21 463.894 1118.77 467.263 1118.77 470.999C1118.77 476.785 1119.91 481.436 1122.18 484.951C1124.45 488.467 1128.07 490.225 1133.05 490.225ZM1230.39 511.758C1228.71 511.758 1226.73 511.575 1224.46 511.208C1222.19 510.916 1219.85 510.183 1217.43 509.011C1215.01 507.839 1212.63 506.082 1210.29 503.738C1207.94 501.394 1205.86 498.208 1204.03 494.18C1202.19 490.078 1200.69 485.024 1199.52 479.019C1198.42 473.013 1197.87 465.725 1197.87 457.156V409.146C1197.87 400.649 1198.46 393.472 1199.63 387.612C1200.88 381.753 1202.49 376.919 1204.46 373.11C1206.44 369.229 1208.64 366.226 1211.06 364.102C1213.55 361.904 1216 360.293 1218.42 359.268C1220.91 358.242 1223.25 357.62 1225.45 357.4C1227.72 357.18 1229.59 357.07 1231.05 357.07C1233.76 357.07 1236.33 357.437 1238.74 358.169C1241.16 358.901 1243.36 359.89 1245.33 361.135C1247.31 362.307 1249.07 363.662 1250.61 365.2C1252.15 366.665 1253.43 368.167 1254.45 369.705L1254.56 369.595L1253.68 350.479V310.159H1281.37V510H1259.73L1257.31 495.938C1256.06 497.915 1254.64 499.856 1253.02 501.76C1251.41 503.665 1249.51 505.386 1247.31 506.924C1245.11 508.389 1242.62 509.561 1239.84 510.439C1237.06 511.318 1233.91 511.758 1230.39 511.758ZM1239.84 490.225C1241.67 490.225 1243.28 489.932 1244.67 489.346C1246.14 488.687 1247.42 487.881 1248.52 486.929C1249.69 485.903 1250.68 484.731 1251.49 483.413C1252.37 482.095 1253.1 480.74 1253.68 479.348V388.381C1252.29 385.305 1250.42 382.705 1248.08 380.581C1245.81 378.384 1243.03 377.285 1239.73 377.285C1237.68 377.285 1235.81 377.651 1234.13 378.384C1232.44 379.116 1230.98 380.508 1229.73 382.559C1228.49 384.536 1227.5 387.319 1226.77 390.908C1226.11 394.424 1225.78 399.001 1225.78 404.641V462.649C1225.78 468.289 1226.11 472.903 1226.77 476.492C1227.5 480.081 1228.49 482.9 1229.73 484.951C1230.98 486.929 1232.44 488.32 1234.13 489.126C1235.89 489.858 1237.79 490.225 1239.84 490.225ZM1348.06 511.648C1344.83 511.648 1341.54 511.392 1338.17 510.879C1334.87 510.366 1331.65 509.304 1328.5 507.693C1325.42 506.082 1322.49 503.774 1319.71 500.771C1317 497.769 1314.62 493.813 1312.57 488.906C1310.52 483.999 1308.91 477.957 1307.74 470.779C1306.56 463.601 1305.98 455.032 1305.98 445.071V421.34C1305.98 411.526 1306.56 403.14 1307.74 396.182C1308.98 389.15 1310.63 383.254 1312.68 378.494C1314.8 373.733 1317.26 369.961 1320.04 367.178C1322.82 364.321 1325.75 362.161 1328.83 360.696C1331.98 359.158 1335.2 358.169 1338.5 357.729C1341.79 357.217 1345.02 356.96 1348.17 356.96C1351.17 356.96 1354.28 357.18 1357.5 357.62C1360.73 358.059 1363.88 359.011 1366.95 360.476C1370.03 361.868 1372.92 363.992 1375.63 366.848C1378.42 369.631 1380.83 373.403 1382.88 378.164C1385.01 382.925 1386.65 388.857 1387.83 395.962C1389.07 402.993 1389.69 411.453 1389.69 421.34V445.071C1389.69 454.885 1389.07 463.345 1387.83 470.449C1386.58 477.554 1384.9 483.56 1382.77 488.467C1380.65 493.374 1378.2 497.366 1375.41 500.442C1372.63 503.445 1369.7 505.789 1366.62 507.473C1363.55 509.158 1360.4 510.256 1357.17 510.769C1354.03 511.355 1350.99 511.648 1348.06 511.648ZM1348.28 490.225C1350.77 490.225 1352.85 489.602 1354.54 488.357C1356.3 487.039 1357.69 484.915 1358.71 481.985C1359.81 479.055 1360.58 475.21 1361.02 470.449C1361.53 465.615 1361.79 459.646 1361.79 452.542V415.298C1361.79 408.193 1361.53 402.224 1361.02 397.39C1360.58 392.556 1359.81 388.674 1358.71 385.745C1357.69 382.742 1356.3 380.581 1354.54 379.263C1352.85 377.944 1350.77 377.285 1348.28 377.285C1345.64 377.285 1343.41 377.944 1341.57 379.263C1339.82 380.581 1338.35 382.742 1337.18 385.745C1336.01 388.674 1335.17 392.556 1334.65 397.39C1334.14 402.224 1333.88 408.193 1333.88 415.298V452.542C1333.88 459.646 1334.14 465.615 1334.65 470.449C1335.17 475.21 1336.01 479.055 1337.18 481.985C1338.35 484.915 1339.82 487.039 1341.57 488.357C1343.41 489.602 1345.64 490.225 1348.28 490.225ZM1414.3 358.718H1434.63L1437.05 374.099C1440.12 368.386 1443.64 364.102 1447.59 361.245C1451.62 358.389 1455.72 356.96 1459.9 356.96C1467.88 356.96 1473.78 359.414 1477.58 364.321C1481.39 369.229 1483.3 376.589 1483.3 386.404C1483.3 387.649 1483.19 389.15 1482.97 390.908C1482.82 392.593 1482.57 394.387 1482.2 396.292C1481.91 398.123 1481.5 399.99 1480.99 401.895C1480.55 403.726 1480.08 405.41 1479.56 406.948H1460.23V392.886C1460.23 389.81 1460.01 387.283 1459.57 385.305C1459.2 383.328 1458.69 381.753 1458.03 380.581C1457.37 379.336 1456.6 378.494 1455.72 378.054C1454.84 377.542 1453.89 377.285 1452.87 377.285C1450.67 377.285 1448.62 378.018 1446.71 379.482C1444.88 380.874 1443.34 382.852 1442.1 385.415V510H1414.3V358.718Z" fill="#5B13BB"/>
</svg>
